<?xml version="1.0" encoding="UTF-8" standalone="no"?>
<!-- Created with Inkscape (http://www.inkscape.org/) -->

<svg
   version="1.1"
   id="svg69"
   width="286.07999"
   height="65.599998"
   viewBox="0 0 286.07999 65.599998"
   sodipodi:docname="lumma.svg"
   inkscape:version="1.1 (c68e22c387, 2021-05-23)"
   xmlns:inkscape="http://www.inkscape.org/namespaces/inkscape"
   xmlns:sodipodi="http://sodipodi.sourceforge.net/DTD/sodipodi-0.dtd"
   xmlns="http://www.w3.org/2000/svg"
   xmlns:svg="http://www.w3.org/2000/svg">
  <defs
     id="defs73" />
  <sodipodi:namedview
     id="namedview71"
     pagecolor="#505050"
     bordercolor="#eeeeee"
     borderopacity="1"
     inkscape:pageshadow="0"
     inkscape:pageopacity="0"
     inkscape:pagecheckerboard="0"
     showgrid="false"
     inkscape:snap-global="true"
     inkscape:snap-bbox="true"
     inkscape:snap-bbox-midpoints="true"
     inkscape:zoom="7.380291"
     inkscape:cx="101.41877"
     inkscape:cy="32.722287"
     inkscape:window-width="1920"
     inkscape:window-height="1016"
     inkscape:window-x="0"
     inkscape:window-y="34"
     inkscape:window-maximized="1"
     inkscape:current-layer="g75" />
  <g
     inkscape:groupmode="layer"
     inkscape:label="Image"
     id="g75"
     style="display:inline">
    <path
       style="fill:#000000;stroke-width:0.32;fill-opacity:1"
       d="M 64.818661,64.640077 C 57.806059,63.271322 52.006117,58.981053 48.558741,52.612474 47.141567,49.994433 46.431621,47.654151 45.158764,41.404721 l -1.011815,-4.96775 0.09586,-14.072247 0.09586,-14.0722484 0.847348,-1.807347 c 3.126809,-6.66931606 11.432466,-8.273187 16.492645,-3.184827 1.758768,1.768563 2.60624,3.59051 3.174042,6.8237484 0.255805,1.456634 0.676794,3.855288 0.935533,5.330343 0.342352,1.951741 0.470432,5.24063 0.470432,12.08 v 9.398082 h 1.076844 c 0.604874,0 1.446394,-0.290688 1.92,-0.663226 l 0.843156,-0.663225 V 22.896482 c 0,-13.8415904 0.142928,-15.2412004 1.815718,-17.7800914 5.055043,-7.672333 16.255711,-5.78649706 18.449647,3.106333 0.269987,1.094364 0.802224,3.7998884 1.182746,6.0122764 0.652473,3.793536 0.684025,4.786339 0.554265,17.440001 -0.156134,15.225592 -0.286672,16.18931 -2.832262,20.90932 -4.764406,8.834121 -15.027945,13.894822 -24.450114,12.055756 z M 74.29634,55.27857 C 80.709889,53.044318 85.600919,48.174449 87.954356,41.679649 L 88.804871,39.332475 88.90922,24.1587 89.013569,8.9849236 88.01555,6.9576546 C 84.806081,0.43829854 76.380468,0.42900154 72.900827,6.9409746 72.191374,8.2686846 72.175844,8.5349676 72.01866,22.067315 71.873972,34.523865 71.804641,35.924523 71.294203,36.702856 69.541829,39.374945 65.796882,39.439 63.881406,36.829649 63.241566,35.958027 63.213131,35.449269 63.058661,22.109651 62.901451,8.5333096 62.886072,8.2689196 62.176494,6.9409746 c -1.731091,-3.239646 -4.173782,-4.728498 -7.757833,-4.728498 -2.060819,0 -2.618691,0.128544 -3.947437,0.909567 -1.589788,0.934463 -3.284393,2.991023 -3.948217,4.791534 -0.265459,0.720012 -0.382797,5.2467764 -0.4,15.4316674 -0.02006,11.881605 0.06054,14.73866 0.458998,16.268449 2.07841,7.979558 8.024797,14.170083 15.568413,16.207599 3.555104,0.960228 8.46087,0.741018 12.145922,-0.542723 z M 63.858661,54.205431 c -7.25336,-1.455894 -13.616496,-7.69095 -15.341769,-15.032956 -0.397786,-1.69281 -0.489319,-4.611618 -0.491715,-15.679999 -0.0019,-8.901767 0.118531,-14.0421864 0.348697,-14.8800004 0.482557,-1.756519 2.620058,-3.76431 4.596672,-4.317727 2.712681,-0.759504 5.628486,0.490287 7.257782,3.110876 0.750035,1.206371 0.750397,1.212399 0.910333,15.1268514 0.181136,15.758869 0.08446,15.176856 2.842915,17.11557 1.193482,0.83881 1.649971,0.964429 3.504649,0.964429 2.551623,0 4.10152,-0.802986 5.433978,-2.815283 l 0.858457,-1.296458 0.16,-13.944128 C 74.098609,8.6168176 74.098894,8.6121006 74.848993,7.4056246 c 1.629296,-2.620589 4.545101,-3.87038 7.257782,-3.110876 2.0428,0.571948 4.12177,2.560749 4.618423,4.418117 0.260598,0.9745778 0.339196,5.6312774 0.267356,15.8400004 l -0.101756,14.459609 -0.83537,2.157296 c -3.160934,8.162924 -10.620524,13.438633 -18.836767,13.322086 -1.144,-0.01622 -2.656,-0.14512 -3.36,-0.286426 z m -13.28,-32.915875 c 0,-1.626218 1.305527,-8.160079 2.116592,-10.593056 0.440778,-1.3222134 1.250077,-2.9669574 1.798445,-3.6549864 l 0.99703,-1.250963 -1.179072,0.191338 c -1.562806,0.253608 -2.972291,1.296596 -3.699481,2.737536 -1.017123,2.0154344 -1.300771,14.2384894 -0.316304,13.6300544 0.155536,-0.09613 0.28279,-0.573091 0.28279,-1.059923 z m 26.105433,-7.519632 c 0.617264,-3.169369 1.518054,-5.1009364 3.131065,-6.7139464 l 1.263501,-1.263501 -1.053296,0.210659 c -1.688633,0.337726 -3.111222,1.410041 -3.824,2.882439 -0.548278,1.1325904 -0.662704,1.9824124 -0.662704,4.9217604 0,3.522432 0.383805,5.962462 0.567072,3.605141 0.04789,-0.616 0.308154,-2.255149 0.578362,-3.642552 z M 9.9558423,64.421293 C 7.808857,64.049706 5.9430795,62.986234 4.3558427,61.229351 2.7238036,59.422881 2.1796837,58.042023 1.0025335,52.719399 L 0,48.186324 0.089332,28.239402 0.178664,8.2924756 1.0219169,6.4940726 c 3.7877095,-8.078039 13.8586821,-8.361564 17.9939271,-0.506576 0.44446,0.844261 0.901177,2.212261 1.014926,3.04 0.11375,0.8277388 0.48156,2.8955994 0.817355,4.5952454 0.52116,2.637879 0.610537,4.543032 0.610537,13.014086 v 9.923816 l 5.68,0.107984 c 5.429693,0.103226 5.750509,0.145456 7.28,0.958269 2.840176,1.509347 4.865686,4.167991 5.565814,7.305578 1.031779,4.623887 1.675715,9.177036 1.488496,10.52493 -0.31175,2.2445 -1.912848,5.260948 -3.563821,6.714192 -2.63576,2.32009 -3.060284,2.388621 -15.330489,2.474861 -5.984,0.04206 -11.664268,-0.05927 -12.6228197,-0.225165 z M 33.228505,55.456308 c 1.829443,-0.78135 3.046768,-1.889469 4.178704,-3.803834 0.752198,-1.27214 0.851453,-1.775721 0.851453,-4.319999 0,-2.584989 -0.09272,-3.037748 -0.905204,-4.419988 -1.116079,-1.898745 -2.424316,-3.093225 -4.164236,-3.802134 -1.096579,-0.446787 -2.49559,-0.545264 -7.955675,-0.56 l -6.625114,-0.01788 -0.09489,-14.799999 -0.09488,-14.7999984 -0.897968,-1.82862 C 14.735514,1.4321176 7.8128321,0.32962954 4.1391407,4.9727446 1.9658027,7.7195886 2.0986646,6.1407066 2.0986646,29.221019 v 20.991455 l 0.8757656,1.489757 c 1.0579688,1.799703 2.9940653,3.395219 4.8180659,3.970522 1.0118774,0.319155 4.1497479,0.425081 12.6360099,0.426566 10.608565,0.0019 11.380972,-0.03695 12.799999,-0.643011 z M 7.3489943,53.467908 C 5.7190862,52.607415 4.2639656,50.713998 3.8453221,48.90889 c -0.3801507,-1.639132 -0.3801507,-37.993698 0,-39.6328304 0.6765264,-2.917045 3.4979801,-5.311475 6.2411459,-5.296556 2.693746,0.01465 5.407308,2.09918 6.206937,4.768103 0.25148,0.839365 0.365257,5.9624084 0.365257,16.4463534 v 15.227232 l 7.971022,0.09564 7.971023,0.09564 1.228976,0.993926 c 2.148108,1.737267 3.153721,4.188637 2.785254,6.789587 -0.277277,1.957261 -1.886486,4.220269 -3.62408,5.096486 -1.400994,0.70648 -1.6419,0.72 -12.829669,0.72 -11.318203,0 -11.4122113,-0.0055 -12.8121937,-0.744566 z M 6.7362865,18.180459 C 7.554082,13.213091 8.470848,9.9759624 9.6590384,7.8601326 10.187921,6.9183436 10.575197,6.1120236 10.519653,6.0683116 10.1896,5.8085666 8.2961172,6.6610116 7.5404122,7.4095636 5.9469633,8.9879306 5.7786635,9.8406284 5.7786635,16.335532 c 0,3.290986 0.074408,5.909203 0.1653507,5.81826 0.090943,-0.09094 0.4474656,-1.878943 0.7922723,-3.973333 z M 129.04809,64.38528 c -3.88449,-0.575776 -7.31481,-3.562102 -8.56085,-7.452806 -0.16339,-0.510192 -0.33545,-0.294269 -0.8483,1.064573 -0.88148,2.335536 -3.46646,4.892301 -5.84667,5.782848 -3.98417,1.490672 -8.47851,0.612502 -11.39278,-2.226086 -1.97862,-1.927242 -2.586849,-3.262023 -3.717189,-8.157466 -0.878025,-3.802681 -0.883517,-3.899225 -0.991347,-17.423868 -0.139363,-17.479428 0.180506,-20.43391 2.789516,-25.765608 2.8177,-5.7581404 7.8732,-8.9687894 15.41403,-9.78914346 3.91151,-0.425526 7.42496,-0.0512 11.11584,1.18429306 l 2.35168,0.787207 2.28832,-0.789618 c 8.18009,-2.8226591 18.20393,-1.12915006 23.25134,3.928269 3.09364,3.099773 4.71015,6.5960994 5.7907,12.5246014 1.61258,8.847571 1.59993,8.6439 1.50055,24.159999 l -0.0943,14.719999 -0.76409,1.538829 c -0.9775,1.968621 -3.12136,4.111104 -5.06954,5.066281 -2.2309,1.093796 -5.99857,1.213277 -8.51199,0.26994 -2.44256,-0.916746 -5.07129,-3.488407 -5.87291,-5.745431 -0.57396,-1.616028 -1.05887,-2.094169 -1.06447,-1.049619 -0.002,0.308 -0.4224,1.29121 -0.93501,2.184909 -2.21642,3.864237 -6.36347,5.850326 -10.83255,5.187897 z m -16.77337,-9.231375 c 2.07535,-1.037066 3.17204,-2.119763 4.31923,-4.26416 0.68902,-1.287946 0.70827,-1.640189 0.86471,-15.823403 0.15037,-13.633196 0.19557,-14.532122 0.7511,-14.93802 0.68283,-0.49891 1.32604,-0.336886 1.70265,0.428896 0.14478,0.294392 0.33592,6.943258 0.42474,14.775257 l 0.16151,14.239999 0.86426,1.638317 c 1.026,1.944887 2.35624,3.139219 4.69265,4.213187 1.44278,0.6632 2.05589,0.764874 3.84,0.6368 3.45641,-0.248125 6.27278,-2.212019 7.69855,-5.368304 0.61955,-1.371529 0.65118,-2.071446 0.66514,-14.719999 0.0144,-13.041257 0.17052,-15.505684 1.01625,-16.041911 0.6582,-0.417319 0.84707,-0.341116 1.45577,0.587343 0.5152,0.785844 0.58209,2.176304 0.72738,15.119998 0.15554,13.85743 0.17934,14.290704 0.85432,15.551501 1.5698,2.932208 4.19181,4.63326 7.50876,4.871372 1.78411,0.128074 2.39722,0.0264 3.84,-0.6368 2.31998,-1.066419 3.4877,-2.11599 4.61165,-4.145033 l 0.94526,-1.706471 V 34.372476 c 0,-17.204915 -0.0903,-18.055615 -2.43781,-22.964243 -2.92171,-6.1092764 -8.72523,-9.3446444 -16.76218,-9.3446444 -3.31857,0 -6.53926,0.604519 -8.90714,1.671858 l -1.65286,0.745042 -1.76,-0.721805 c -5.96773,-2.447464 -13.80362,-2.219236 -19.25286,0.560758 -2.34574,1.196704 -4.98606,4.029769 -6.34688,6.8102044 -2.391387,4.886074 -2.359229,4.599764 -2.483323,22.112033 -0.125158,17.663071 -0.168393,17.284402 2.276313,19.936597 2.86129,3.104134 6.67303,3.829427 10.38281,1.975629 z m -5.98184,-1.410298 c -2.00751,-0.643539 -3.79035,-2.504096 -4.39607,-4.587712 -0.42231,-1.452713 -0.47467,-3.777001 -0.36045,-16.001502 0.12519,-13.399849 0.17692,-14.459629 0.8201,-16.802381 1.78031,-6.4846816 5.59438,-10.3559484 11.5822,-11.7559004 0.968,-0.226318 3.272,-0.413849 5.12,-0.416735 3.68003,-0.0057 6.10453,0.536794 8.71716,1.950681 l 1.51717,0.821048 2.00283,-1.002115 c 2.72446,-1.363178 4.60707,-1.748051 8.56284,-1.750544 8.85927,-0.0056 14.07232,3.773381 16.56518,12.0081614 0.42888,1.416758 0.52947,4.163282 0.63013,17.205868 l 0.11979,15.519998 -0.75579,1.44 c -0.88055,1.677687 -3.11441,3.331607 -4.88872,3.619536 -2.04426,0.331741 -4.23977,-0.341065 -5.797,-1.776473 -2.29873,-2.118896 -2.35332,-2.524528 -2.35538,-17.501141 -9.6e-4,-7.867542 -0.13084,-13.446571 -0.32936,-14.161351 -0.61143,-2.201429 -3.03293,-3.440313 -4.8371,-2.47475 -0.35539,0.1902 -0.91876,0.9462 -1.25193,1.68 -0.56285,1.23965 -0.60627,2.276673 -0.6128,14.636101 -0.008,15.448299 -0.0503,15.756722 -2.4381,17.858581 -3.20152,2.818089 -7.75443,2.281488 -10.2045,-1.202691 l -0.96442,-1.371488 -0.16,-14.293161 c -0.13825,-12.349721 -0.23155,-14.450638 -0.6862,-15.451339 -1.34612,-2.962846 -4.64149,-2.962846 -5.98761,0 -0.45458,1.000547 -0.54797,3.099574 -0.68619,15.422337 l -0.16,14.264163 -0.87284,1.31815 c -1.66254,2.510755 -5.0523,3.715267 -7.89294,2.804659 z m -1.48729,-33.7319 c 1.97863,-5.941286 5.91448,-10.3864166 11.53307,-13.0254084 l 2.24,-1.052103 -1.3315,-0.02086 c -1.64353,-0.02575 -4.74319,0.913913 -6.59545,1.999412 -3.22542,1.8902188 -5.67246,5.8015244 -6.48651,10.3678764 -0.44552,2.499178 -0.58272,4.251853 -0.33282,4.251853 0.0735,0 0.51149,-1.134346 0.97321,-2.52077 z m 94.32249,44.373573 c -3.88449,-0.575776 -7.3148,-3.562102 -8.56084,-7.452806 -0.16339,-0.510192 -0.33545,-0.294269 -0.84831,1.064573 -0.88148,2.335536 -3.46646,4.892301 -5.84666,5.782848 -3.98417,1.490672 -8.47851,0.612502 -11.39278,-2.226086 -1.97862,-1.927242 -2.58686,-3.262023 -3.71719,-8.157466 -0.87803,-3.802681 -0.88352,-3.899225 -0.99135,-17.423868 -0.13936,-17.479428 0.1805,-20.43391 2.78952,-25.765608 2.8177,-5.7581404 7.8732,-8.9687894 15.41403,-9.78914346 3.9115,-0.425526 7.42495,-0.0512 11.11584,1.18429306 l 2.35168,0.787207 2.28832,-0.789618 c 8.18009,-2.8226591 18.20393,-1.12915006 23.25134,3.928269 3.09363,3.099773 4.71015,6.5960994 5.79069,12.5246014 1.61259,8.847571 1.59994,8.6439 1.50056,24.159999 l -0.0943,14.719999 -0.76409,1.538829 c -0.9775,1.968621 -3.12136,4.111104 -5.06954,5.066281 -2.23091,1.093796 -5.99857,1.213277 -8.51199,0.26994 -2.44256,-0.916746 -5.07129,-3.488407 -5.87291,-5.745431 -0.57396,-1.616028 -1.05887,-2.094169 -1.06447,-1.049619 -0.002,0.308 -0.42241,1.29121 -0.93501,2.184909 -2.21643,3.864237 -6.36347,5.850326 -10.83256,5.187897 z m -16.99293,-9.138316 c 1.68881,-0.762819 3.22214,-2.236163 4.38403,-4.212522 l 0.85947,-1.461968 0.0816,-13.599999 c 0.0449,-7.479999 0.15907,-14.066249 0.25377,-14.63611 0.23907,-1.438599 1.19186,-1.906989 2.03601,-1.000899 0.61993,0.665413 0.64313,1.141497 0.67469,13.843061 0.018,7.234671 0.0963,13.649237 0.17413,14.254594 0.34086,2.652515 2.64774,5.652953 5.25981,6.841174 2.07186,0.942477 5.44133,0.93409 7.37387,-0.01834 1.82546,-0.89967 3.22806,-2.34719 4.2668,-4.403469 l 0.80825,-1.6 0.0252,-13.279999 c 0.0138,-7.303999 0.0895,-13.775494 0.16807,-14.3811 0.29039,-2.238077 2.00433,-2.551089 2.63934,-0.482016 0.22116,0.720579 0.35973,5.897838 0.38436,14.359644 0.0212,7.278032 0.17391,13.704915 0.33941,14.281961 0.38094,1.328256 1.79095,3.472064 2.81174,4.275014 1.86332,1.46569 3.06045,1.879847 5.50296,1.903799 2.6489,0.02598 4.61423,-0.689146 6.34994,-2.310547 0.89253,-0.833751 2.31536,-3.222247 2.50596,-4.206756 0.13799,-0.712736 0.10022,-29.787492 -0.0399,-30.719998 -0.26319,-1.751504 -0.5137,-2.884902 -0.80974,-3.66355 -0.17074,-0.44906 -0.25435,-0.816462 -0.18582,-0.816462 0.0685,0 -0.29503,-0.866295 -0.80792,-1.925098 -0.51289,-1.058804 -0.93253,-2.005632 -0.93253,-2.104062 0,-0.6534334 -3.04876,-3.8872144 -4.64,-4.9215794 -3.48044,-2.262425 -6.17749,-3.003004 -11.04,-3.031466 -4.18338,-0.02449 -6.18699,0.282295 -8.77463,1.343523 l -2.21464,0.908254 -2.52587,-0.893834 c -1.38922,-0.491609 -2.98464,-0.994101 -3.54536,-1.11665 -1.31648,-0.287722 -7.7253,-0.319835 -9.1795,-0.04599 -6.6596,1.254071 -11.46117,5.423117 -13.37102,11.6096214 -1.14522,3.709698 -1.18898,4.452183 -1.18898,20.177286 v 15.359993 l 0.74793,1.44 c 1.28338,2.470906 2.97309,3.91258 5.65207,4.822387 1.1561,0.392621 4.52097,0.06051 5.9565,-0.587897 z m -6.59924,-1.631283 c -1.59791,-0.725917 -3.21584,-2.533376 -3.6861,-4.117901 -0.24985,-0.841865 -0.31943,-5.788617 -0.23078,-16.405304 0.13936,-16.687606 0.15411,-16.827102 2.21027,-20.900335 2.62701,-5.2040814 7.06028,-7.7970034 13.90242,-8.1312304 4.20302,-0.20531 7.34231,0.368519 9.99456,1.826896 l 1.70762,0.938963 1.65238,-0.932352 c 2.22343,-1.254572 5.21576,-1.912653 8.69237,-1.911655 9.37241,0.0027 14.96729,4.299263 17.02873,13.0771714 0.5053,2.151609 0.57127,4.15103 0.57127,17.312542 0,16.330731 0.0737,15.66724 -1.97029,17.73245 -2.65374,2.681267 -7.13881,2.795731 -9.81828,0.250572 -2.01495,-1.913952 -1.95641,-1.446384 -2.13143,-17.023023 -0.14853,-13.218987 -0.2041,-14.328862 -0.77514,-15.479367 -1.07916,-2.17425 -3.72238,-2.606071 -5.04015,-0.823405 -1.03978,1.406613 -1.22456,3.966868 -1.23173,17.066449 -0.006,11.761471 -0.0562,12.94461 -0.59447,14.129561 -0.64969,1.430301 -2.20855,2.893283 -3.78823,3.555254 -2.33745,0.979517 -5.66094,0.242701 -7.55999,-1.676041 -2.02161,-2.042583 -1.95532,-1.505716 -2.13029,-17.25245 -0.11169,-10.052547 -0.27181,-14.594301 -0.53036,-15.04358 -1.41405,-2.457216 -4.24523,-2.457216 -5.65927,0 -0.25855,0.449279 -0.41867,4.991033 -0.53037,15.04358 -0.17496,15.746734 -0.10867,15.209867 -2.13028,17.25245 -2.00951,2.030342 -5.39359,2.673225 -7.95246,1.510755 z m 0.84948,-37.559467 c 0.65963,-1.260897 2.06126,-3.025041 3.78075,-4.758595 2.2013,-2.2192984 3.26129,-3.0136364 5.45251,-4.0859974 2.61081,-1.277703 2.6622,-1.323195 1.28,-1.133197 -4.79746,0.659469 -7.67721,2.291565 -9.88991,5.6051064 -1.48123,2.218169 -2.51032,5.14259 -2.74791,7.808945 l -0.17109,1.92 0.6237,-1.676262 c 0.34303,-0.921945 1.09541,-2.577945 1.67195,-3.68 z m 71.63326,48.365857 c -2.06788,-0.307149 -3.57904,-1.015504 -5.10237,-2.391738 -2.09451,-1.892262 -2.8001,-3.434249 -4.03154,-8.810476 l -1.12864,-4.927382 0.1014,-14.559999 c 0.10095,-14.495985 0.10491,-14.571273 0.90125,-17.124044 2.4566,-7.8748934 8.62578,-13.8308964 16.6199,-16.04560946 1.52921,-0.423656 3.18158,-0.572564 6.24,-0.56233300322 3.79494,0.0126900032 4.41412,0.10091600322 7.05568,1.00530206322 8.70621,2.980723 14.0583,9.3156304 15.6637,18.5400864 0.27057,1.554629 0.71088,3.997375 0.97847,5.428325 0.40055,2.141921 0.47024,5.224108 0.39434,17.44 l -0.0922,14.838271 -0.85136,1.612848 c -0.89635,1.698071 -3.08811,3.932147 -4.63204,4.721469 -2.31289,1.182445 -5.81113,1.235571 -8.23674,0.125094 -3.60642,-1.651072 -5.24676,-4.02854 -6.37821,-9.244374 l -0.71478,-3.295037 -2.59473,-0.09232 -2.59472,-0.09232 -0.13837,2.972317 c -0.16314,3.504668 -0.82853,5.255788 -2.81661,7.412611 -2.19849,2.385075 -5.43241,3.526095 -8.64244,3.049302 z m 3.36,-9.053536 c 3.4981,-1.656537 5.01771,-4.391862 5.22,-9.39606 l 0.13259,-3.28 h 4.60371 4.6037 v 3.027996 c 0,2.265965 0.16457,3.46784 0.65392,4.77576 1.70654,4.561114 6.74862,6.835693 10.91973,4.926096 2.08547,-0.954761 3.66914,-2.485661 4.55814,-4.406262 0.64064,-1.384023 0.67204,-2.024554 0.76113,-15.522883 0.079,-11.965883 0.0152,-14.46291 -0.42492,-16.634903 -1.67827,-8.282588 -7.90434,-14.7686274 -15.99684,-16.6647934 -2.88051,-0.674937 -9.15149,-0.49942 -11.51116,0.322182 -6.49202,2.26043 -11.29023,6.608349 -13.62553,12.3468564 -1.4715,3.615901 -1.57447,4.924452 -1.57447,20.00849 0,11.662344 0.083,14.376113 0.47327,15.482369 1.68114,4.764877 6.85032,7.078147 11.20673,5.015152 z m -5.6,-1.648521 c -1.46638,-0.658359 -2.77358,-1.921696 -3.6293,-3.50754 -0.66634,-1.23486 -0.69437,-1.700268 -0.79469,-13.197711 -0.1489,-17.065635 0.27407,-20.051549 3.53007,-24.919658 3.38305,-5.0580884 8.71653,-7.9954954 15.16334,-8.3511964 3.97928,-0.219555 7.10961,0.401079 10.45173,2.072211 3.23304,1.616594 6.71777,5.1440594 8.33727,8.4395254 2.07727,4.22696 2.17833,5.262425 2.07404,21.249009 l -0.0925,14.173577 -0.97189,1.382387 c -2.45467,3.491447 -6.59843,4.133904 -9.60976,1.48992 -1.94979,-1.711942 -2.19728,-2.488576 -2.37665,-7.458063 l -0.1617,-4.48 -6.48,-0.08663 -6.48,-0.08662 -0.014,3.926623 c -0.0151,4.233978 -0.33193,5.621197 -1.6904,7.402243 -1.5485,2.030183 -5.00818,2.960922 -7.25555,1.951924 z m 22.08,-28.879733 c 0,-4.510433 -2.10593,-7.030245 -6.12181,-7.324937 -2.46423,-0.180829 -4.3193,0.631567 -5.85964,2.566123 -0.90882,1.14142 -0.98645,1.443538 -1.08944,4.24 l -0.11089,3.011009 h 6.59089 6.59089 z m -11.2,-1.14465 c 0,-1.998329 0.7603,-3.218666 2.44345,-3.921932 1.46681,-0.612874 2.88728,-0.551212 4.42251,0.19198 1.63549,0.79173 2.41404,2.074075 2.41404,3.976171 v 1.470626 h -4.64 -4.64 z m -9.61493,-7.563155 c 2.6292,-3.755905 5.60574,-6.4176436 9.62879,-8.6104204 2.14572,-1.169533 2.28475,-1.301031 1.37985,-1.305078 -1.64684,-0.0074 -4.98786,1.180731 -7.02761,2.499082 -4.02208,2.5995984 -6.74436,7.1735734 -7.27081,12.2164164 l -0.18374,1.76 1.34475,-2.72 c 0.73961,-1.496 1.69756,-3.224 2.12877,-3.84 z"
       id="path277" />
    <path
       style="fill:#f22e8a;fill-opacity:1;stroke-width:0.166616"
       d="M 9.346726,55.805208 C 8.1640748,55.70047 7.6408397,55.561642 6.7654375,55.120321 5.4157951,54.43992 3.7164195,52.795223 2.8671811,51.347497 L 2.2493185,50.294205 2.2522786,30.603782 C 2.2539227,19.667731 2.3240727,10.259082 2.4100608,9.4417506 2.6268179,7.3814375 2.9384959,6.5941817 4.0851234,5.2107733 5.2689709,3.7824589 6.4423425,2.9450129 7.8901652,2.4950801 11.627282,1.3337146 15.476098,3.3091849 17.557596,7.4570532 l 0.853492,1.7007825 V 19.880626 c 0,5.897535 0.04931,12.527929 0.109566,14.734209 l 0.109566,4.011418 6.680043,0.06406 c 6.474635,0.06209 6.709449,0.07569 7.636289,0.44219 2.00301,0.792048 3.596306,2.330997 4.674462,4.515013 0.53002,1.07366 0.531691,1.085318 0.525226,3.665556 -0.0074,2.94334 -0.120238,3.342528 -1.486268,5.256846 -1.302252,1.824944 -3.169853,2.96996 -5.294292,3.245903 -1.438811,0.186887 -19.889289,0.177991 -22.018954,-0.01061 z m 21.023235,-1.644695 c 1.314021,-0.108867 1.921708,-0.244449 2.614223,-0.583265 1.141841,-0.558651 2.403935,-1.927238 3.121571,-3.384963 0.51639,-1.048937 0.549805,-1.223349 0.549805,-2.869785 0,-1.619219 -0.0396,-1.835609 -0.518966,-2.835979 -0.644446,-1.344866 -1.229959,-2.078077 -2.520779,-3.156662 L 32.60798,40.487733 h -4.155736 c -2.285656,0 -5.854843,-0.04945 -7.931527,-0.109887 L 16.744926,40.267961 16.737101,27.75667 C 16.732796,20.875462 16.666218,13.779079 16.589148,11.986933 16.453082,8.8228894 16.434453,8.699794 15.946182,7.7382199 14.656281,5.1979611 11.664874,3.5425816 9.2019554,4.006112 7.9143077,4.2484521 6.6594414,4.9276275 5.6685723,5.9184966 4.4687828,7.118286 3.9139123,8.3099698 3.7099847,10.124914 3.4876534,12.10365 3.4884836,46.291919 3.7109073,48.113225 c 0.2098272,1.718163 0.7778448,2.923545 1.9373117,4.111143 1.2295864,1.25942 2.3448205,1.783856 4.0988277,1.927468 2.0592553,0.168602 18.6085613,0.175567 20.6229143,0.0087 z"
       id="path1495" />
    <path
       style="fill:#f22e8a;fill-opacity:1;stroke-width:0.166616"
       d="M 5.9280284,16.567257 C 5.9144932,11.241047 6.0263292,9.9185674 6.5824632,8.8284545 7.1611171,7.6941992 9.1764459,6.1802811 10.123452,6.168458 10.3671,6.1654161 10.279742,6.4388754 9.6056627,7.7893066 8.2721721,10.460784 7.6301393,12.710217 6.6691075,18.077856 c -0.3281439,1.832778 -0.6261678,3.407301 -0.6622753,3.49894 -0.036107,0.09164 -0.071569,-2.162654 -0.078804,-5.009539 z"
       id="path1534" />
    <path
       style="font-variation-settings:normal;opacity:1;vector-effect:none;fill:#f28dbc;fill-opacity:1;stroke-width:0.0433587;stroke-linecap:butt;stroke-linejoin:miter;stroke-miterlimit:4;stroke-dasharray:none;stroke-dashoffset:0;stroke-opacity:1;-inkscape-stroke:none;stop-color:#000000;stop-opacity:1"
       d="M 65.309078,56.287269 C 65.08551,56.255262 64.414805,56.164517 63.818622,56.085614 63.22244,56.006709 62.027053,55.70729 61.162207,55.420238 56.535565,53.884599 52.659397,50.90818 49.865977,46.746124 48.442783,44.625636 46.977254,41.249222 46.543105,39.0906 46.264081,37.70327 46.117693,29.610032 46.206119,20.459898 46.311819,9.5221694 46.373882,8.3213147 46.886178,7.301362 47.858032,5.3664579 49.453926,3.7046852 51.14143,2.8704544 52.112742,2.3902786 52.215095,2.3693529 53.81717,2.32341 c 1.911677,-0.054821 3.162635,0.1632876 4.451978,0.7762178 2.264139,1.0763299 4.08848,3.4842241 4.389932,5.7941378 0.07645,0.5858552 0.201653,5.5772084 0.278218,11.0918964 0.147475,10.622311 0.307656,15.396068 0.544325,16.222168 0.187046,0.652886 1.231082,1.718879 2.098447,2.142577 0.977829,0.477658 2.556221,0.533392 3.635368,0.128365 1.040105,-0.390374 2.150724,-1.474459 2.37378,-2.31707 0.22438,-0.847611 0.403551,-6.226354 0.568177,-17.056764 0.07873,-5.179335 0.199023,-9.8309226 0.267323,-10.3368609 0.370779,-2.7466182 3.248416,-5.6853354 6.2632,-6.3961423 1.735464,-0.4091768 3.540928,-0.2228571 5.184114,0.5349886 1.906745,0.8794001 3.17827,2.253232 4.386671,4.7396188 l 0.698723,1.4376831 -0.121747,15.2064307 -0.121746,15.206432 -0.673727,1.761448 c -1.926383,5.036507 -4.547089,8.527832 -8.401246,11.192209 -3.660664,2.530616 -7.35919,3.725743 -11.890954,3.842399 -1.117842,0.02877 -2.215359,0.02613 -2.438928,-0.0059 z m 3.793889,-1.821733 c 4.496416,-0.41973 8.417521,-2.208946 11.68462,-5.331736 2.560911,-2.447795 4.018088,-4.661743 5.494664,-8.348259 l 0.678883,-1.694941 0.0614,-13.549602 C 87.089814,10.694713 87.037151,9.024448 86.466241,7.8978134 85.664956,6.3165533 84.072707,4.9155216 82.418835,4.3364724 80.747949,3.7514663 78.520228,4.0844086 76.909781,5.1598233 75.285566,6.2444331 74.41024,7.5968818 74.191095,9.360414 74.043586,10.547475 73.783308,25.094857 73.780384,32.315799 l -0.0016,4.06488 -0.757855,1.116932 c -1.15105,1.696426 -2.231474,2.526297 -3.742935,2.874945 -0.918965,0.211977 -3.220686,0.172092 -3.910858,-0.06777 -0.835581,-0.290395 -2.635767,-1.596422 -3.0342,-2.201299 C 61.475511,36.801859 61.358033,35.095672 61.174049,21.272874 61.097174,15.497356 60.978832,10.241064 60.911065,9.5922236 60.843298,8.9433833 60.671089,8.1507316 60.528378,7.8307754 59.862526,6.337961 58.136458,4.8506077 56.474006,4.3371289 55.404539,4.0068042 53.794918,3.9780009 52.806591,4.2715025 51.251054,4.733447 49.189999,6.5221977 48.543777,7.9711168 48.106121,8.9524021 48.02628,11.348952 48.023891,23.576306 c -0.0027,13.892229 0.05628,14.897868 1.033263,17.614482 2.558495,7.114164 9.430928,12.694127 16.332161,13.260636 2.031395,0.166753 2.076623,0.166925 3.713652,0.01411 z"
       id="path6161" />
    <path
       style="font-variation-settings:normal;opacity:1;vector-effect:none;fill:#f28dbc;fill-opacity:1;stroke-width:0.0433587;stroke-linecap:butt;stroke-linejoin:miter;stroke-miterlimit:4;stroke-dasharray:none;stroke-dashoffset:0;stroke-opacity:1;-inkscape-stroke:none;stop-color:#000000;stop-opacity:1"
       d="m 49.970295,21.713236 c -0.05927,-0.27946 -0.103854,-2.337306 -0.09908,-4.57299 0.0085,-3.985531 0.190753,-6.343799 0.603917,-7.8150458 0.210589,-0.7498919 0.931649,-1.7357734 1.69083,-2.3118142 0.66926,-0.5078122 2.08375,-1.0515614 2.735494,-1.0515614 h 0.335769 l -0.28997,0.372614 C 54.222318,7.2659931 53.591,8.334697 53.125402,9.4185024 52.287679,11.36853 51.145622,16.243446 50.674527,19.880162 c -0.282399,2.180037 -0.314729,2.341184 -0.469696,2.341184 -0.06973,0 -0.175268,-0.228649 -0.234536,-0.50811 z"
       id="path6294" />
    <path
       style="opacity:1;fill:#f28dbc;fill-opacity:1;stroke-width:0.135496"
       d="m 75.757895,17.319155 c -0.1519,-1.163295 -0.116464,-6.336933 0.04844,-7.072785 0.32881,-1.4672169 1.345833,-2.8555535 2.586477,-3.5307964 0.595569,-0.3241494 1.835167,-0.7469002 2.205442,-0.7521408 0.06249,-8.845e-4 -0.264431,0.4099609 -0.7265,0.9129899 -2.052207,2.2341253 -2.835748,4.1286753 -3.516383,8.5023743 -0.162361,1.04332 -0.340605,2.079864 -0.396098,2.303433 -0.09111,0.36707 -0.110639,0.331862 -0.201382,-0.363075 z"
       id="path6427" />
    <path
       style="opacity:1;fill:#ffffff;fill-opacity:1;stroke-width:0.135496"
       d="m 106.34568,55.826872 c -1.80123,-0.472218 -3.38349,-1.508805 -4.78826,-3.136933 -1.812515,-2.100705 -1.784127,-1.904552 -1.860262,-12.854111 -0.07073,-10.171885 0.124802,-20.433478 0.432722,-22.710079 0.11196,-0.827725 0.3555,-1.970405 0.5412,-2.539289 0.45447,-1.392223 1.91408,-4.326727 2.71815,-5.4647606 0.84932,-1.2020695 2.75811,-3.1687181 3.78812,-3.9029398 1.61891,-1.1540146 3.80079,-2.0219566 6.54802,-2.6047746 1.56431,-0.3318646 1.98872,-0.36493 4.76589,-0.3713038 3.95849,-0.00909 6.028,0.3566251 9.28148,1.6401621 0.81975,0.3234017 1.58857,0.5881205 1.70849,0.588264 0.11992,1.491e-4 0.67484,-0.2107956 1.23316,-0.4687537 1.38717,-0.640911 2.8275,-1.0956833 4.62375,-1.4599115 1.33168,-0.2700247 1.90224,-0.3058097 4.76474,-0.2988394 2.84211,0.00692 3.43118,0.046363 4.67461,0.3129939 3.47369,0.7448745 5.9528,1.9255065 8.25611,3.931825 1.67269,1.4570206 2.98729,3.3701237 4.22717,6.1517204 1.75909,3.946396 1.87469,5.430223 1.87742,24.098851 l 0.002,12.823947 -0.7791,1.39817 c -1.23724,2.220335 -2.57185,3.420428 -5.00199,4.497834 -1.23855,0.549107 -2.13069,0.67563 -3.60394,0.511111 -1.56014,-0.174221 -2.47974,-0.441294 -3.68052,-1.068905 -1.58636,-0.829142 -3.15635,-2.509747 -3.88646,-4.160278 -0.40739,-0.920968 -0.50252,-3.065197 -0.66114,-14.902177 -0.18854,-14.069475 -0.25145,-14.965449 -1.11538,-15.885058 -0.58016,-0.617559 -1.43593,-0.184406 -1.72001,0.870603 -0.30686,1.13957 -0.4231,4.73096 -0.49474,15.285447 -0.041,6.036348 -0.13219,11.613726 -0.20271,12.394173 -0.11369,1.258319 -0.19288,1.549829 -0.69928,2.574424 -0.4435,0.897321 -0.81413,1.399289 -1.65916,2.247077 -1.62577,1.631085 -3.18649,2.358005 -5.66572,2.638855 -1.58974,0.180088 -2.51816,0.01512 -4.06373,-0.722053 -2.32065,-1.106856 -3.48922,-2.234459 -4.73255,-4.566654 l -0.614,-1.151716 -0.16265,-12.262389 c -0.0895,-6.744314 -0.21257,-13.253342 -0.27357,-14.464506 -0.11996,-2.381443 -0.24533,-2.797811 -0.89126,-2.959929 -0.41637,-0.104502 -1.11071,0.165755 -1.29091,0.502447 -0.28579,0.534002 -0.39012,3.31204 -0.5312,14.144319 -0.0806,6.185393 -0.20492,12.160767 -0.27635,13.27861 -0.12647,1.97893 -0.14402,2.060978 -0.66664,3.116408 -1.25394,2.532324 -3.37745,4.199491 -6.29659,4.94345 -1.31844,0.336012 -2.55515,0.337522 -3.82478,0.0047 z m 46.01959,-1.997973 c 1.69106,-0.556747 3.4209,-2.088018 4.32761,-3.830839 l 0.57317,-1.101694 -0.15184,-14.252109 c -0.0835,-7.838658 -0.2091,-14.983786 -0.27908,-15.878059 -0.15086,-1.927978 -0.29131,-2.578458 -0.90641,-4.198044 -1.98319,-5.2218654 -5.2032,-8.3444499 -9.98983,-9.6875803 -1.7315,-0.4858593 -3.52298,-0.6785858 -6.31025,-0.6788537 -4.02939,-3.93e-4 -5.80065,0.3871595 -8.91879,1.9514104 l -1.39888,0.7017629 -1.52039,-0.7768912 c -2.94726,-1.5059916 -4.81835,-1.9136111 -8.75733,-1.9077997 -3.85579,0.00569 -5.66824,0.3095501 -8.10016,1.3580063 -3.94423,1.7004535 -6.7175,4.9350643 -8.27136,9.6473443 -0.98923,2.999962 -1.0652,4.222712 -1.18696,19.104938 -0.0953,11.641629 -0.0304,13.742308 0.46873,15.193149 0.46015,1.33746 1.37101,2.541507 2.61156,3.45215 2.52312,1.852142 6.51548,1.417066 8.84518,-0.963924 0.45259,-0.46256 1.0219,-1.174217 1.26512,-1.581458 l 0.44223,-0.740438 0.13462,-11.304258 c 0.14958,-12.560727 0.29553,-16.920621 0.60088,-17.948829 0.63377,-2.134126 2.74938,-3.1825 4.43217,-2.19632 0.76417,0.447831 1.40848,1.29159 1.67715,2.19632 0.30512,1.027448 0.45067,5.377197 0.60268,18.011202 l 0.13677,11.36663 0.77899,1.084065 c 1.59548,2.220308 3.38969,3.214129 5.80267,3.214129 1.8742,0 3.46657,-0.651783 4.98677,-2.041158 1.1724,-1.071506 1.51949,-1.783177 1.85034,-3.793887 0.0869,-0.528268 0.19044,-5.865992 0.2626,-13.540885 0.0768,-8.167778 0.17279,-12.975567 0.27016,-13.532091 0.23774,-1.358853 0.99801,-2.669134 1.78478,-3.075991 0.56557,-0.29247 1.73418,-0.270061 2.44626,0.04691 0.67639,0.301078 1.66592,1.322396 1.9576,2.020479 0.31375,0.75092 0.4439,4.724442 0.45407,13.863213 0.013,11.734898 0.2002,15.064076 0.92671,16.4848 0.6385,1.248642 2.23394,2.58369 3.77798,3.161388 1.47154,0.550576 3.03968,0.612668 4.37448,0.173212 z"
       id="path6466" />
    <path
       style="opacity:1;fill:#ffffff;fill-opacity:1;stroke-width:0.135496"
       d="m 103.79054,21.442244 c 0.17902,-1.587935 0.61059,-4.05761 0.85831,-4.91173 1.1938,-4.116211 3.62745,-7.3472528 6.6991,-8.8941147 1.85317,-0.9332385 4.59165,-1.6756736 6.17289,-1.6735391 l 0.76718,0.00104 -1.89694,0.9307099 c -6.01932,2.9532962 -9.3674,6.7548449 -11.73832,13.3281749 -0.39647,1.099211 -0.77243,1.998566 -0.83546,1.998566 -0.063,0 -0.0751,-0.350596 -0.0268,-0.779102 z"
       id="path6542" />
    <path
       style="opacity:1;fill:#2393d9;fill-opacity:1;stroke-width:0.135496"
       d="m 176.22933,55.755218 c -0.40065,-0.11278 -1.13388,-0.418096 -1.62939,-0.678482 -1.76345,-0.926666 -2.91504,-2.131264 -4.06507,-4.25219 l -0.69062,-1.273669 0.002,-13.156656 c 0.002,-17.200391 0.0895,-18.858202 1.16728,-22.211111 1.95594,-6.0850138 6.2002,-9.9590723 12.65148,-11.5479637 1.13662,-0.2799401 6.66933,-0.4212741 8.64159,-0.2207508 1.13472,0.1153695 1.91993,0.3189037 4.24089,1.0992786 1.56658,0.5267319 2.93231,0.9576943 3.03495,0.9576943 0.10265,0 1.0295,-0.3314427 2.05968,-0.7365394 3.00792,-1.1828018 4.02311,-1.346953 8.37686,-1.3544932 3.95142,-0.00684 5.03861,0.1134382 7.19967,0.7965381 1.16464,0.3681354 2.96307,1.2439257 4.20356,2.0470231 0.96681,0.6259201 4.22683,3.8770843 4.54416,4.5318159 1.59603,3.2930021 2.04118,4.5104731 2.65054,7.2490371 l 0.36179,1.625952 0.005,15.446545 0.005,15.446546 -0.49161,1.01622 c -1.39338,2.880293 -3.34566,4.543191 -5.99088,5.102854 -0.68944,0.145871 -1.479,0.188402 -2.73124,0.147123 -2.06792,-0.06817 -2.75637,-0.281552 -4.35238,-1.349027 -1.20153,-0.803635 -2.10523,-1.875647 -2.9151,-3.458054 -0.53916,-1.053467 -0.5769,-1.203728 -0.68061,-2.709921 -0.0604,-0.877037 -0.17196,-6.838307 -0.24793,-13.247269 -0.076,-6.408961 -0.19414,-12.217087 -0.26259,-12.906946 -0.21222,-2.138715 -1.09586,-3.02273 -2.14177,-2.142662 -0.76024,0.639701 -0.73731,0.232782 -0.86511,15.356682 l -0.11824,13.99217 -0.49321,0.980139 c -1.35884,2.700326 -3.15564,4.468218 -5.25794,5.173353 -1.74747,0.586119 -4.30432,0.540194 -6.09409,-0.109458 -2.2187,-0.805343 -4.3801,-3.07693 -5.33713,-5.609231 l -0.34523,-0.913453 -0.0986,-6.232817 c -0.0542,-3.428049 -0.10563,-9.190017 -0.11419,-12.804373 -0.0168,-7.073122 -0.11335,-8.786845 -0.5266,-9.343514 -0.64286,-0.865952 -1.47618,-0.871139 -1.97777,-0.0123 -0.37441,0.641091 -0.43907,2.650713 -0.55465,17.240727 l -0.0937,11.829767 -0.72245,1.219464 c -1.6665,2.812996 -3.57634,4.375509 -5.95904,4.875301 -1.50053,0.314749 -3.52963,0.377956 -4.38686,0.136653 z m 25.54846,-1.830459 c 1.5118,-0.519324 3.32866,-2.120604 4.02804,-3.550084 0.52877,-1.080753 0.61437,-2.537272 0.62335,-10.606595 0.009,-8.503407 0.18616,-16.186026 0.41135,-17.885474 0.0889,-0.670705 0.27642,-1.528082 0.41678,-1.90528 0.80912,-2.174459 3.19877,-2.624853 4.757,-0.896585 0.67655,0.750382 0.87558,1.277011 1.04541,2.766079 0.0787,0.690388 0.2049,5.736781 0.28036,11.214207 0.19747,14.333447 0.32753,16.712017 0.98225,17.963308 0.30407,0.581144 1.80509,1.949446 2.62237,2.390509 1.41957,0.7661 3.60308,1.008478 5.24123,0.581795 1.8174,-0.473374 3.8145,-1.970635 4.4903,-3.36646 0.63202,-1.305412 0.64771,-1.626694 0.71244,-14.58824 0.0654,-13.098261 -0.0309,-16.774612 -0.49388,-18.857093 -0.82599,-3.715042 -2.65807,-7.194024 -4.83736,-9.1857751 -3.13395,-2.8642564 -7.6535,-4.2455664 -13.18699,-4.03034 -3.39152,0.1319139 -5.83814,0.747316 -8.15255,2.0506177 l -1.25237,0.7052428 -1.83689,-0.9229749 c -1.22098,-0.6134996 -2.27153,-1.0332313 -3.13315,-1.2518027 -4.0098,-1.0171856 -9.81622,-0.6843289 -13.40506,0.7684544 -3.44927,1.3962854 -5.71714,3.6251012 -7.6006,7.4697138 -1.04274,2.128497 -1.38774,3.36725 -1.60833,5.774972 -0.21874,2.387423 -0.44414,22.872078 -0.29933,27.202548 l 0.12353,3.693991 0.41692,0.845125 c 0.81353,1.649116 2.38644,3.048922 4.05912,3.612407 1.85293,0.624208 4.59153,0.237225 6.24789,-0.882872 1.02064,-0.690196 2.02315,-1.763004 2.39402,-2.561888 0.62322,-1.342455 0.70179,-2.768303 0.88097,-15.98853 0.0747,-5.514687 0.19565,-11.032763 0.26868,-12.262389 0.12738,-2.144647 0.14861,-2.257754 0.52132,-2.777668 0.46392,-0.647139 1.403,-1.26553 2.09149,-1.377255 0.27392,-0.04445 0.78779,-2.4e-5 1.14192,0.09873 0.8382,0.233744 1.99074,1.343758 2.10699,2.029245 0.14273,0.841639 0.36347,8.686872 0.5031,17.879981 0.17754,11.689384 0.22395,12.084749 1.5928,13.56756 2.10515,2.280397 5.21782,3.185938 7.84688,2.28282 z"
       id="path6581" />
    <path
       style="opacity:1;fill:#2393d9;fill-opacity:1;stroke-width:0.135496"
       d="m 174.2404,20.251567 c 0.29295,-2.163987 0.39769,-2.760544 0.63512,-3.617337 0.76698,-2.767762 2.0534,-5.036808 3.90354,-6.8852724 1.05473,-1.0537743 1.5215,-1.4095751 2.51461,-1.916769 0.6707,-0.3425407 1.72031,-0.7798745 2.33246,-0.9718528 1.17443,-0.3683144 3.66315,-0.8421394 3.78472,-0.7205689 0.0394,0.039421 -0.77667,0.5021346 -1.81355,1.0282518 -2.30036,1.167225 -3.30102,1.9068758 -5.32331,3.9348293 -2.73907,2.746732 -4.13778,4.856454 -5.48493,8.273082 -0.59523,1.50964 -0.64531,1.589559 -0.54866,0.875637 z"
       id="path6714" />
    <path
       style="opacity:1;fill:#f2be22;fill-opacity:1;stroke-width:0.135496"
       d="m 246.70444,55.953469 c -0.89473,-0.159581 -2.18245,-0.678923 -3.02672,-1.220689 -1.74638,-1.120651 -3.35208,-3.524131 -3.66102,-5.479979 -0.21648,-1.37054 -0.32309,-21.418516 -0.13762,-25.879739 0.16109,-3.874634 0.36275,-5.347163 0.98345,-7.181288 1.81402,-5.360287 5.63453,-9.6241251 11.02456,-12.3038475 3.21029,-1.5960385 5.11681,-1.9915581 9.59328,-1.9901836 3.06328,9.404e-4 4.6022,0.2006962 6.60792,0.8577185 3.17121,1.0388116 5.89691,2.7294896 8.32626,5.1645468 3.07969,3.0869338 5.00642,6.6452688 5.89039,10.8785328 0.45601,2.183765 0.55521,6.831863 0.40707,19.072595 -0.0776,6.415332 -0.18992,11.171506 -0.27508,11.652657 -0.60376,3.411246 -4.38697,6.471717 -8.00003,6.471717 -3.1822,0 -6.05712,-1.876214 -7.47326,-4.877154 -0.72769,-1.542057 -0.80945,-2.039382 -0.88032,-5.354578 l -0.0659,-3.082534 h -4.64855 -4.64856 l -0.0747,0.982346 c -0.0411,0.540291 -0.10886,1.683538 -0.15063,2.54055 -0.16641,3.414553 -0.98588,5.693176 -2.63136,7.316785 -1.02604,1.012398 -2.03287,1.643265 -3.3581,2.104131 -1.06884,0.371706 -2.74594,0.516606 -3.80111,0.328413 z m 3.54033,-2.208286 c 1.35837,-0.493782 2.30768,-1.204557 3.08263,-2.308043 1.18432,-1.68641 1.46331,-3.23084 1.46936,-8.134187 l 0.003,-2.83344 4.36975,0.08942 c 2.40336,0.04918 5.28863,0.08952 6.4117,0.08964 l 2.04196,2.71e-4 0.16295,3.827763 c 0.22867,5.371727 0.42602,6.17222 1.87926,7.622478 1.56278,1.559574 3.12979,2.189873 5.13353,2.064865 2.14998,-0.134133 3.94353,-1.323799 5.5274,-3.666336 l 0.62418,-0.923206 -2.7e-4,-13.23617 c -4e-4,-13.618416 -0.0689,-15.912955 -0.5398,-18.070392 -0.53018,-2.429234 -2.02709,-5.361867 -3.85626,-7.554929 -3.86531,-4.634264 -9.01169,-7.0545277 -15.00054,-7.0545277 -4.7015,0 -8.98787,1.2904635 -12.24145,3.6854329 -2.90347,2.1372551 -5.67457,5.9087928 -6.77005,9.2141918 -0.421,1.270296 -0.82598,3.573471 -1.02322,5.819216 -0.40642,4.627403 -0.25613,25.173532 0.19638,26.848132 0.52691,1.949928 2.44532,3.983564 4.40909,4.673916 1.15593,0.406358 2.74125,0.347061 4.11991,-0.154098 z"
       id="path6753" />
    <path
       style="opacity:1;fill:#f2be22;fill-opacity:1;stroke-width:0.135496"
       d="m 243.69213,22.061781 c -0.006,-0.233589 0.29039,-2.283036 0.41853,-2.889095 0.81459,-3.853025 3.11793,-7.535484 6.12317,-9.7894145 1.72063,-1.2904727 4.39937,-2.4745965 6.64948,-2.9393704 1.99245,-0.4115516 1.92476,-0.2351664 -0.43163,1.1247937 -2.70797,1.5628686 -4.11529,2.6198462 -6.06903,4.5581982 -2.59537,2.574929 -3.43896,3.763875 -5.52879,7.792261 -0.63754,1.228944 -1.16032,2.193126 -1.16173,2.142627 z"
       id="path6886" />
    <path
       style="opacity:1;fill:#f2be22;fill-opacity:1;stroke-width:0.135496"
       d="m 254.80616,25.845864 c 0.01,-2.282415 0.2018,-4.052107 0.51726,-4.765247 0.42458,-0.959836 1.95327,-2.422418 3.08839,-2.954826 0.80095,-0.375674 1.10897,-0.442458 2.25654,-0.489261 3.08473,-0.125807 5.16247,0.91712 6.26289,3.143684 0.60904,1.23231 0.86578,2.644111 0.8719,4.794658 l 0.005,1.659827 h -6.50381 -6.50381 z m 11.20111,-1.78507 c -0.0572,-1.010304 -0.16385,-1.607381 -0.37451,-2.097079 -0.55537,-1.290988 -2.00693,-2.275994 -3.81908,-2.591566 -1.56057,-0.271762 -3.35635,0.345275 -4.33611,1.489899 -0.62458,0.729683 -0.78475,1.29406 -0.87604,3.086872 l -0.0776,1.52433 h 4.78168 4.78167 z"
       id="path6925" />
  </g>
</svg>
